<svg width="100%" height="100%" viewBox="0 0 24 24" version="1.1" xmlns="http://www.w3.org/2000/svg" xmlns:xlink="http://www.w3.org/1999/xlink" xml:space="preserve" xmlns:serif="http://www.serif.com/" style="fill-rule:evenodd;clip-rule:evenodd;stroke-linejoin:round;stroke-miterlimit:2;">
    <g transform="matrix(1,0,0,1,-180,-95)">
        <g id="Frontend-Edit---Icon" serif:id="Frontend Edit - Icon" transform="matrix(0.24,0,0,0.24,179.52,95.24)">
            <g transform="matrix(1.428572,0,0,1.428572,-22.285735,-21.000043)">
                <g transform="matrix(0.731827,0,0,0.731827,14.822171,13.071707)">
                    <path d="M90.656,28.125C90.656,29.946 89.945,31.657 88.656,32.938L39.711,81.883C39.586,82 39.453,82.11 39.312,82.211L39.187,82.297C39.062,82.383 38.922,82.461 38.781,82.524L38.711,82.563C38.57,82.618 38.43,82.665 38.289,82.704L14.851,88.743C14.593,88.813 14.328,88.844 14.07,88.844C13.249,88.844 12.445,88.516 11.851,87.915C11.07,87.126 10.765,85.977 11.054,84.907L17.304,61.68C17.335,61.539 17.382,61.406 17.437,61.281L17.46,61.234C17.531,61.086 17.609,60.945 17.695,60.805L17.781,60.68C17.882,60.539 17.984,60.406 18.109,60.281L67.054,11.344C68.344,10.055 70.054,9.344 71.875,9.344C73.695,9.344 75.406,10.055 76.695,11.344L88.656,23.305C89.945,24.594 90.656,26.305 90.656,28.125ZM84.242,28.532C84.375,28.391 84.414,28.235 84.414,28.125C84.414,28.016 84.39,27.86 84.25,27.719L72.288,15.758C72.148,15.625 71.992,15.594 71.882,15.594C71.773,15.594 71.617,15.617 71.476,15.758L64.578,22.656L77.344,35.422L84.242,28.532ZM22.57,66.141L18.468,81.367L33.851,77.398L33.375,75L28.125,75C26.398,75 25,73.602 25,71.875L25,66.625L22.57,66.141ZM64.328,31.25L60.156,27.078L26.648,60.586L28.734,61C30.195,61.289 31.25,62.571 31.25,64.063L31.25,68.75L35.937,68.75C37.43,68.75 38.711,69.805 39.008,71.266L39.422,73.352L72.922,39.844L68.75,35.672L64.328,31.25Z" fill="currentColor"/>
                </g>
                <g transform="matrix(0.731827,0,0,0.731827,14.822171,13.071707)" opacity=".4">
                    <path d="M68.75,35.672L39.711,64.711C39.101,65.32 38.297,65.625 37.5,65.625C36.703,65.625 35.899,65.32 35.289,64.711C34.07,63.492 34.07,61.508 35.289,60.289L64.328,31.25L68.75,35.672Z" fill="currentColor"/>
                </g>
                <g transform="matrix(4.166667,0,0,4.166667,-123,-1)" opacity=".4">
                    <path d="M36,18L37,14L40,17L36,18Z" fill="currentColor"/>
                </g>
            </g>
        </g>
    </g>
</svg>
