<svg width="100%" height="100%" viewBox="0 0 24 24" version="1.1" xmlns="http://www.w3.org/2000/svg"
     xmlns:xlink="http://www.w3.org/1999/xlink" xml:space="preserve" xmlns:serif="http://www.serif.com/"
     style="fill-rule:evenodd;clip-rule:evenodd;stroke-linejoin:round;stroke-miterlimit:2;"><rect id="Frontend-Edit" serif:id="Frontend Edit" x="-0" y="0" width="24" height="24" style="fill:none;"/>
    <rect x="0" y="0" width="24" height="24" style="fill:#4d908e;"/>
    <path d="M19,8.317c0,0.32 -0.125,0.62 -0.351,0.845l-8.597,8.597c-0.022,0.021 -0.045,0.04 -0.07,0.058l-0.022,0.015c-0.022,0.015 -0.047,0.029 -0.071,0.04l-0.012,0.007c-0.025,0.01 -0.049,0.018 -0.074,0.025l-4.117,1.061c-0.045,0.012 -0.092,0.018 -0.137,0.018c-0.144,0 -0.285,-0.058 -0.39,-0.163c-0.137,-0.139 -0.191,-0.34 -0.14,-0.528l1.098,-4.08c0.005,-0.025 0.014,-0.048 0.023,-0.07l0.004,-0.008c0.012,-0.026 0.026,-0.051 0.041,-0.075l0.015,-0.022c0.018,-0.025 0.036,-0.048 0.058,-0.07l8.597,-8.595c0.226,-0.226 0.527,-0.351 0.847,-0.351c0.32,0 0.62,0.125 0.847,0.351l2.101,2.101c0.226,0.226 0.351,0.527 0.351,0.847Zm-1.127,0.071c0.023,-0.025 0.03,-0.052 0.03,-0.071c0,-0.019 -0.004,-0.047 -0.029,-0.071l-2.101,-2.101c-0.025,-0.023 -0.052,-0.029 -0.071,-0.029c-0.019,0 -0.047,0.004 -0.071,0.029l-1.212,1.212l2.242,2.242l1.212,-1.21Zm-10.832,6.606l-0.72,2.674l2.702,-0.697l-0.084,-0.421l-0.922,0c-0.303,0 -0.549,-0.246 -0.549,-0.549l0,-0.922l-0.427,-0.085Zm7.334,-6.128l-0.733,-0.733l-5.885,5.885l0.366,0.073c0.257,0.051 0.442,0.276 0.442,0.538l0,0.823l0.823,0c0.262,0 0.487,0.185 0.539,0.442l0.073,0.366l5.884,-5.885l-0.733,-0.733l-0.777,-0.777Z"/>
    <path d="M15.152,9.643l-5.1,5.1c-0.107,0.107 -0.248,0.161 -0.388,0.161c-0.14,0 -0.281,-0.054 -0.388,-0.161c-0.214,-0.214 -0.214,-0.563 0,-0.777l5.1,-5.1l0.777,0.777Z"
          style="fill-opacity:0.4;"/>
    <path d="M6,18l1,-4l3,3l-4,1Z" style="fill-opacity:0.4;"/>
</svg>